<svg width="32" height="32" viewBox="0 0 32 32" fill="none" xmlns="http://www.w3.org/2000/svg">
<circle cx="16" cy="16" r="15.5" fill="#FFA800" stroke="black"/>
<line x1="3.56292" y1="24.7572" x2="8.56292" y2="15.7572" stroke="black"/>
<line x1="8.44721" y1="15.7764" x2="16.4472" y2="31.7764" stroke="black"/>
<line x1="15.5528" y1="31.7764" x2="23.5528" y2="15.7764" stroke="black"/>
<line x1="23.4371" y1="15.7572" x2="28.4371" y2="24.7572" stroke="black"/>
<circle cx="14.5" cy="10.5" r="1.5" fill="#FF3D00"/>
<circle cx="14.5" cy="22.5" r="1.5" fill="#FF3D00"/>
<circle cx="5.5" cy="13.5" r="1.5" fill="#FF3D00"/>
<circle cx="10.5" cy="5.5" r="1.5" fill="#FF3D00"/>
<circle cx="27.5" cy="12.5" r="1.5" fill="#FF3D00"/>
<circle cx="20.5" cy="6.5" r="1.5" fill="#FF3D00"/>
<circle cx="18.5" cy="17.5" r="1.5" fill="#FF3D00"/>
<path d="M8.50001 16.5L3.97827 24.955C7.11295 28.9407 11.228 30.909 15.5 31L8.50001 16.5Z" fill="#CC1DDB"/>
<path d="M23.5 16.5L28 25C24.8653 28.9857 20.772 30.909 16.5 31L23.5 16.5Z" fill="#CC1DDB"/>
</svg>
